999
Inkscape export via OpenSCAD DXF Export
  0
SECTION
  2
HEADER
  9
$ACADVER
  1
AC1014
  9
$HANDSEED
  5
FFFF
  9
$MEASUREMENT
 70
     1
  0
ENDSEC
  0
SECTION
  2
TABLES
  0
TABLE
  2
VPORT
  5
8
330
0
100
AcDbSymbolTable
 70
     4
  0
VPORT
  5
2E
330
8
100
AcDbSymbolTableRecord
100
AcDbViewportTableRecord
  2
*ACTIVE
 70
     0
 10
0.0
 20
0.0
 11
1.0
 21
1.0
 12
210.0
 22
148.5
 13
0.0
 23
0.0
 14
10.0
 24
10.0
 15
10.0
 25
10.0
 16
0.0
 26
0.0
 36
1.0
 17
0.0
 27
0.0
 37
0.0
 40
341.0
 41
1.24
 42
50.0
 43
0.0
 44
0.0
 50
0.0
 51
0.0
 71
     0
 72
   100
 73
     1
 74
     3
 75
     0
 76
     0
 77
     0
 78
     0
  0
ENDTAB
  0
TABLE
  2
LTYPE
  5
5
330
0
100
AcDbSymbolTable
 70
     1
  0
LTYPE
  5
14
330
5
100
AcDbSymbolTableRecord
100
AcDbLinetypeTableRecord
  2
BYBLOCK
 70
     0
  3

 72
    65
 73
     0
 40
0.0
  0
LTYPE
  5
15
330
5
100
AcDbSymbolTableRecord
100
AcDbLinetypeTableRecord
  2
BYLAYER
 70
     0
  3

 72
    65
 73
     0
 40
0.0
  0
LTYPE
  5
16
330
5
100
AcDbSymbolTableRecord
100
AcDbLinetypeTableRecord
  2
CONTINUOUS
 70
     0
  3
Solid line
 72
    65
 73
     0
 40
0.0
  0
ENDTAB
  0
TABLE
0
TABLE
2
LAYER
5
2
330
0
100
AcDbSymbolTable
70
1
0
LAYER
5
10
330
2
100
AcDbSymbolTableRecord
100
AcDbLayerTableRecord
2
Layer_1
70
0
62
7
6
CONTINUOUS
0
ENDTAB
0
ENDSEC
  0
ENDTAB
  0
TABLE
  2
STYLE
  5
3
330
0
100
AcDbSymbolTable
 70
     1
  0
STYLE
  5
11
330
3
100
AcDbSymbolTableRecord
100
AcDbTextStyleTableRecord
  2
STANDARD
 70
     0
 40
0.0
 41
1.0
 50
0.0
 71
     0
 42
2.5
  3
txt
  4

  0
ENDTAB
  0
TABLE
  2
VIEW
  5
6
330
0
100
AcDbSymbolTable
 70
     0
  0
ENDTAB
  0
TABLE
  2
UCS
  5
7
330
0
100
AcDbSymbolTable
 70
     0
  0
ENDTAB
  0
TABLE
  2
APPID
  5
9
330
0
100
AcDbSymbolTable
 70
     2
  0
APPID
  5
12
330
9
100
AcDbSymbolTableRecord
100
AcDbRegAppTableRecord
  2
ACAD
 70
     0
  0
ENDTAB
  0
TABLE
  2
DIMSTYLE
  5
A
330
0
100
AcDbSymbolTable
 70
     1
  0
DIMSTYLE
105
27
330
A
100
AcDbSymbolTableRecord
100
AcDbDimStyleTableRecord
  2
ISO-25
 70
     0
  3

  4

  5

  6

  7

 40
1.0
 41
2.5
 42
0.625
 43
3.75
 44
1.25
 45
0.0
 46
0.0
 47
0.0
 48
0.0
140
2.5
141
2.5
142
0.0
143
0.03937007874016
144
1.0
145
0.0
146
1.0
147
0.625
 71
     0
 72
     0
 73
     0
 74
     0
 75
     0
 76
     0
 77
     1
 78
     8
170
     0
171
     3
172
     1
173
     0
174
     0
175
     0
176
     0
177
     0
178
     0
270
     2
271
     2
272
     2
273
     2
274
     3
340
11
275
     0
280
     0
281
     0
282
     0
283
     0
284
     8
285
     0
286
     0
287
     3
288
     0
  0
ENDTAB
  0
TABLE
  2
BLOCK_RECORD
  5
1
330
0
100
AcDbSymbolTable
 70
     1
  0
BLOCK_RECORD
  5
1F
330
1
100
AcDbSymbolTableRecord
100
AcDbBlockTableRecord
  2
*MODEL_SPACE
  0
BLOCK_RECORD
  5
1B
330
1
100
AcDbSymbolTableRecord
100
AcDbBlockTableRecord
  2
*PAPER_SPACE
  0
ENDTAB
  0
ENDSEC
  0
SECTION
  2
BLOCKS
  0
BLOCK
  5
20
330
1F
100
AcDbEntity
  8
0
100
AcDbBlockBegin
  2
*MODEL_SPACE
 70
     0
 10
0.0
 20
0.0
 30
0.0
  3
*MODEL_SPACE
  1

  0
ENDBLK
  5
21
330
1F
100
AcDbEntity
  8
0
100
AcDbBlockEnd
  0
BLOCK
  5
1C
330
1B
100
AcDbEntity
 67
     1
  8
0
100
AcDbBlockBegin
  2
*PAPER_SPACE
  1

  0
ENDBLK
  5
1D
330
1B
100
AcDbEntity
 67
     1
  8
0
100
AcDbBlockEnd
  0
ENDSEC
  0
SECTION
  2
ENTITIES
0
DIMENSION
5
83
100
AcDbEntity
62
256
370
-1
6
ByLayer
1
total_width
3
Standard
70
0
71
5
72
1
41
1.0
100
AcDbAlignedDimension
13
4.371291
23
0.000000
33
0.0
14
108.471341
24
0.000000
34
0.0
50
0.000000
100
AcDbRotatedDimension
0
DIMENSION
5
83
100
AcDbEntity
62
256
370
-1
6
ByLayer
1
total_minx
3
Standard
70
0
71
5
72
1
41
1.0
100
AcDbAlignedDimension
13
4.371291
23
0.000000
33
0.0
14
0.000000
24
0.000000
34
0.0
50
0.000000
100
AcDbRotatedDimension
0
DIMENSION
5
83
100
AcDbEntity
62
256
370
-1
6
ByLayer
1
total_maxx
3
Standard
70
0
71
5
72
1
41
1.0
100
AcDbAlignedDimension
13
0.000000
23
0.000000
33
0.0
14
108.471341
24
0.000000
34
0.0
50
0.000000
100
AcDbRotatedDimension
0
DIMENSION
5
83
100
AcDbEntity
62
256
370
-1
6
ByLayer
1
total_height
3
Standard
70
0
71
5
72
1
41
1.0
100
AcDbAlignedDimension
13
0.000000
23
4.034139
33
0.0
14
0.000000
24
108.177186
34
0.0
50
90.000000
100
AcDbRotatedDimension
0
DIMENSION
5
83
100
AcDbEntity
62
256
370
-1
6
ByLayer
1
total_miny
3
Standard
70
0
71
5
72
1
41
1.0
100
AcDbAlignedDimension
13
4.034139
23
0.000000
33
0.0
14
0.000000
24
0.000000
34
0.0
50
0.000000
100
AcDbRotatedDimension
0
DIMENSION
5
83
100
AcDbEntity
62
256
370
-1
6
ByLayer
1
total_maxy
3
Standard
70
0
71
5
72
1
41
1.0
100
AcDbAlignedDimension
13
0.000000
23
0.000000
33
0.0
14
108.177186
24
0.000000
34
0.0
50
0.000000
100
AcDbRotatedDimension
0
DIMENSION
8
Layer_1
5
83
100
AcDbEntity
62
256
370
-1
6
ByLayer
1
Layer_1_width
3
Standard
70
0
71
5
72
1
41
1.0
100
AcDbAlignedDimension
13
4.371291
23
0.000000
33
0.0
14
108.471341
24
0.000000
34
0.0
50
0.000000
100
AcDbRotatedDimension
0
DIMENSION
8
Layer_1
5
83
100
AcDbEntity
62
256
370
-1
6
ByLayer
1
Layer_1_minx
3
Standard
70
0
71
5
72
1
41
1.0
100
AcDbAlignedDimension
13
4.371291
23
0.000000
33
0.0
14
0.000000
24
0.000000
34
0.0
50
0.000000
100
AcDbRotatedDimension
0
DIMENSION
8
Layer_1
5
83
100
AcDbEntity
62
256
370
-1
6
ByLayer
1
Layer_1_maxx
3
Standard
70
0
71
5
72
1
41
1.0
100
AcDbAlignedDimension
13
0.000000
23
0.000000
33
0.0
14
108.471341
24
0.000000
34
0.0
50
0.000000
100
AcDbRotatedDimension
0
DIMENSION
8
Layer_1
5
83
100
AcDbEntity
62
256
370
-1
6
ByLayer
1
Layer_1_height
3
Standard
70
0
71
5
72
1
41
1.0
100
AcDbAlignedDimension
13
0.000000
23
4.034139
33
0.0
14
0.000000
24
108.177186
34
0.0
50
90.000000
100
AcDbRotatedDimension
0
DIMENSION
8
Layer_1
5
83
100
AcDbEntity
62
256
370
-1
6
ByLayer
1
Layer_1_miny
3
Standard
70
0
71
5
72
1
41
1.0
100
AcDbAlignedDimension
13
4.034139
23
0.000000
33
0.0
14
0.000000
24
0.000000
34
0.0
50
0.000000
100
AcDbRotatedDimension
0
DIMENSION
8
Layer_1
5
83
100
AcDbEntity
62
256
370
-1
6
ByLayer
1
Layer_1_maxy
3
Standard
70
0
71
5
72
1
41
1.0
100
AcDbAlignedDimension
13
0.000000
23
0.000000
33
0.0
14
108.177186
24
0.000000
34
0.0
50
0.000000
100
AcDbRotatedDimension
62
0
0
LWPOLYLINE
100
AcDbPolyline
8
Layer_1
90
90
70
0
10
49.986816
20
4.251325
30
0.0
10
45.772412
20
4.950681
30
0.0
10
41.682080
20
5.976784
30
0.0
10
37.729227
20
7.316773
30
0.0
10
33.927261
20
8.957787
30
0.0
10
30.289589
20
10.886966
30
0.0
10
26.829619
20
13.091448
30
0.0
10
23.560759
20
15.558374
30
0.0
10
20.496415
20
18.274882
30
0.0
10
17.649996
20
21.228111
30
0.0
10
15.034909
20
24.405201
30
0.0
10
12.664561
20
27.793291
30
0.0
10
10.552360
20
31.379520
30
0.0
10
8.711713
20
35.151027
30
0.0
10
7.156028
20
39.094952
30
0.0
10
5.898713
20
43.198433
30
0.0
10
4.953174
20
47.448611
30
0.0
10
4.513341
20
51.374135
30
0.0
10
4.371291
20
56.131374
30
0.0
10
4.525959
20
60.912855
30
0.0
10
4.976274
20
64.911111
30
0.0
10
5.627248
20
67.996709
30
0.0
10
6.461654
20
71.025398
30
0.0
10
7.473643
20
73.989501
30
0.0
10
8.657361
20
76.881343
30
0.0
10
10.006959
20
79.693246
30
0.0
10
11.516585
20
82.417535
30
0.0
10
13.180387
20
85.046534
30
0.0
10
14.992514
20
87.572566
30
0.0
10
16.947114
20
89.987956
30
0.0
10
19.038337
20
92.285027
30
0.0
10
21.260330
20
94.456102
30
0.0
10
23.607243
20
96.493507
30
0.0
10
26.073224
20
98.389564
30
0.0
10
28.652422
20
100.136597
30
0.0
10
31.338985
20
101.726931
30
0.0
10
34.127062
20
103.152889
30
0.0
10
37.086819
20
104.443896
30
0.0
10
40.093573
20
105.543241
30
0.0
10
43.139467
20
106.451270
30
0.0
10
46.216644
20
107.168332
30
0.0
10
49.317246
20
107.694774
30
0.0
10
52.433416
20
108.030942
30
0.0
10
55.557298
20
108.177186
30
0.0
10
58.681034
20
108.133851
30
0.0
10
61.796766
20
107.901286
30
0.0
10
64.896638
20
107.479837
30
0.0
10
67.972793
20
106.869853
30
0.0
10
71.017373
20
106.071681
30
0.0
10
74.022521
20
105.085668
30
0.0
10
76.980380
20
103.912161
30
0.0
10
79.883092
20
102.551508
30
0.0
10
82.722802
20
101.004057
30
0.0
10
86.375560
20
98.660174
30
0.0
10
89.778245
20
96.056620
30
0.0
10
92.923054
20
93.212238
30
0.0
10
95.802183
20
90.145868
30
0.0
10
98.407830
20
86.876351
30
0.0
10
100.732193
20
83.422530
30
0.0
10
102.767469
20
79.803244
30
0.0
10
104.505855
20
76.037334
30
0.0
10
105.939548
20
72.143643
30
0.0
10
107.060746
20
68.141011
30
0.0
10
107.861646
20
64.048278
30
0.0
10
108.334445
20
59.884287
30
0.0
10
108.471341
20
55.667879
30
0.0
10
108.264531
20
51.417893
30
0.0
10
107.706212
20
47.153172
30
0.0
10
106.788582
20
42.892557
30
0.0
10
105.731057
20
39.334738
30
0.0
10
104.433530
20
35.891269
30
0.0
10
102.905846
20
32.571448
30
0.0
10
101.157845
20
29.384578
30
0.0
10
99.199372
20
26.339959
30
0.0
10
97.040268
20
23.446891
30
0.0
10
94.690375
20
20.714675
30
0.0
10
92.159538
20
18.152612
30
0.0
10
89.457597
20
15.770001
30
0.0
10
86.594395
20
13.576145
30
0.0
10
83.579776
20
11.580343
30
0.0
10
80.423581
20
9.791896
30
0.0
10
77.135653
20
8.220104
30
0.0
10
73.725834
20
6.874269
30
0.0
10
70.203968
20
5.763691
30
0.0
10
66.579897
20
4.897670
30
0.0
10
62.875536
20
4.392245
30
0.0
10
58.277367
20
4.092757
30
0.0
10
53.682192
20
4.034139
30
0.0
10
49.986813
20
4.251325
30
0.0
10
49.986816
20
4.251325
30
0.0
62
0
0
LWPOLYLINE
100
AcDbPolyline
8
Layer_1
90
11
70
0
10
52.103483
20
6.279701
30
0.0
10
51.656600
20
6.696319
30
0.0
10
50.582178
20
7.301289
30
0.0
10
49.155672
20
7.851411
30
0.0
10
48.727671
20
7.750336
30
0.0
10
48.226136
20
7.410755
30
0.0
10
47.391402
20
6.781111
30
0.0
10
49.659246
20
6.434119
30
0.0
10
52.015288
20
6.042172
30
0.0
10
52.103483
20
6.279701
30
0.0
10
52.103483
20
6.279701
30
0.0
62
0
0
LWPOLYLINE
100
AcDbPolyline
8
Layer_1
90
28
70
0
10
61.099316
20
6.323192
30
0.0
10
61.651440
20
6.485817
30
0.0
10
61.736459
20
6.581285
30
0.0
10
61.672412
20
6.708631
30
0.0
10
59.600011
20
7.873390
30
0.0
10
57.042372
20
9.336447
30
0.0
10
57.454083
20
10.395413
30
0.0
10
57.809390
20
10.938611
30
0.0
10
58.310595
20
11.111824
30
0.0
10
59.104610
20
10.912039
30
0.0
10
60.338349
20
10.336239
30
0.0
10
61.459457
20
9.943939
30
0.0
10
60.903389
20
14.820643
30
0.0
10
60.223256
20
19.667361
30
0.0
10
58.107425
20
19.755556
30
0.0
10
56.708589
20
19.745517
30
0.0
10
56.281528
20
19.575861
30
0.0
10
55.971411
20
19.156796
30
0.0
10
55.508126
20
17.151488
30
0.0
10
54.930966
20
12.891688
30
0.0
10
54.356524
20
8.602852
30
0.0
10
54.265936
20
7.365455
30
0.0
10
54.351478
20
6.592415
30
0.0
10
54.646931
20
6.178488
30
0.0
10
55.186076
20
6.018432
30
0.0
10
57.130566
20
6.038960
30
0.0
10
61.099316
20
6.323192
30
0.0
10
61.099316
20
6.323192
30
0.0
62
0
0
LWPOLYLINE
100
AcDbPolyline
8
Layer_1
90
64
70
0
10
69.934751
20
7.961647
30
0.0
10
74.469978
20
9.441098
30
0.0
10
76.166991
20
10.107693
30
0.0
10
72.601904
20
11.817562
30
0.0
10
70.084061
20
13.113469
30
0.0
10
69.036816
20
13.828073
30
0.0
10
70.271089
20
16.587511
30
0.0
10
71.722513
20
19.371889
30
0.0
10
72.144700
20
19.391312
30
0.0
10
72.784051
20
19.080227
30
0.0
10
73.367736
20
18.612392
30
0.0
10
73.622927
20
18.161564
30
0.0
10
73.402574
20
17.340648
30
0.0
10
72.872792
20
16.140390
30
0.0
10
72.433822
20
15.068184
30
0.0
10
72.431820
20
14.555131
30
0.0
10
73.899713
20
13.862196
30
0.0
10
75.617219
20
12.872187
30
0.0
10
77.031989
20
11.926452
30
0.0
10
77.591677
20
11.366342
30
0.0
10
77.594811
20
11.062492
30
0.0
10
77.726201
20
10.936111
30
0.0
10
78.866097
20
11.416260
30
0.0
10
80.877470
20
12.500925
30
0.0
10
82.818696
20
13.656432
30
0.0
10
83.748149
20
14.349106
30
0.0
10
82.698752
20
16.193230
30
0.0
10
79.950468
20
20.045073
30
0.0
10
75.992372
20
25.326656
30
0.0
10
73.948152
20
24.216800
30
0.0
10
71.903931
20
23.106944
30
0.0
10
73.557181
20
22.277776
30
0.0
10
76.707376
20
20.588591
30
0.0
10
78.204322
20
19.728578
30
0.0
10
76.986802
20
17.360815
30
0.0
10
75.951730
20
15.377400
30
0.0
10
75.336661
20
14.427834
30
0.0
10
74.871250
20
14.223368
30
0.0
10
74.285150
20
14.475251
30
0.0
10
73.334626
20
15.005761
30
0.0
10
74.125325
20
16.880507
30
0.0
10
75.027937
20
18.661724
30
0.0
10
71.959109
20
20.254874
30
0.0
10
68.890275
20
21.848022
30
0.0
10
66.582296
20
21.181430
30
0.0
10
63.238527
20
20.288388
30
0.0
10
62.707991
20
20.131425
30
0.0
10
62.632793
20
20.032029
30
0.0
10
62.706591
20
19.895349
30
0.0
10
64.826027
20
18.625701
30
0.0
10
67.550719
20
17.106985
30
0.0
10
67.523955
20
16.722685
30
0.0
10
67.206984
20
16.065894
30
0.0
10
66.779839
20
15.445594
30
0.0
10
66.422549
20
15.170765
30
0.0
10
64.851892
20
15.895331
30
0.0
10
63.960936
20
16.353002
30
0.0
10
63.484740
20
16.437737
30
0.0
10
63.540043
20
14.904801
30
0.0
10
63.926943
20
11.473166
30
0.0
10
64.549980
20
6.689431
30
0.0
10
65.823262
20
6.919112
30
0.0
10
69.934751
20
7.961647
30
0.0
10
69.934751
20
7.961647
30
0.0
62
0
0
LWPOLYLINE
100
AcDbPolyline
8
Layer_1
90
43
70
0
10
45.938547
20
7.733778
30
0.0
10
45.913640
20
8.115492
30
0.0
10
46.117878
20
8.510088
30
0.0
10
47.388484
20
9.557681
30
0.0
10
49.053679
20
10.703365
30
0.0
10
50.383889
20
9.937792
30
0.0
10
52.028132
20
9.172222
30
0.0
10
52.359839
20
10.209558
30
0.0
10
52.765311
20
12.541113
30
0.0
10
53.070696
20
14.996208
30
0.0
10
53.102137
20
16.404167
30
0.0
10
52.988218
20
16.622087
30
0.0
10
52.706857
20
16.698111
30
0.0
10
50.853758
20
16.435423
30
0.0
10
50.022476
20
16.327722
30
0.0
10
49.463052
20
16.441735
30
0.0
10
48.951624
20
16.896330
30
0.0
10
48.264329
20
17.810373
30
0.0
10
47.409138
20
19.218963
30
0.0
10
47.365384
20
19.624769
30
0.0
10
47.535854
20
19.954209
30
0.0
10
47.832227
20
20.582402
30
0.0
10
46.118249
20
21.136730
30
0.0
10
44.549413
20
21.455696
30
0.0
10
43.237899
20
18.322273
30
0.0
10
42.225705
20
15.266893
30
0.0
10
43.150282
20
11.866428
30
0.0
10
43.805707
20
9.562260
30
0.0
10
43.797482
20
9.050370
30
0.0
10
43.591254
20
8.783822
30
0.0
10
42.898621
20
8.487860
30
0.0
10
42.339969
20
8.616652
30
0.0
10
41.853964
20
9.212761
30
0.0
10
41.379267
20
10.318750
30
0.0
10
40.719999
20
12.170833
30
0.0
10
39.995732
20
10.678739
30
0.0
10
39.532209
20
9.576959
30
0.0
10
39.434838
20
9.023277
30
0.0
10
42.526458
20
7.996908
30
0.0
10
45.865452
20
7.074335
30
0.0
10
46.005870
20
7.260299
30
0.0
10
45.938547
20
7.733778
30
0.0
10
45.938547
20
7.733778
30
0.0
62
0
0
LWPOLYLINE
100
AcDbPolyline
8
Layer_1
90
36
70
0
10
37.815881
20
11.166664
30
0.0
10
38.220410
20
12.589555
30
0.0
10
36.403348
20
12.152139
30
0.0
10
34.983873
20
11.779310
30
0.0
10
34.639811
20
11.837262
30
0.0
10
34.421453
20
12.052170
30
0.0
10
34.116303
20
12.804141
30
0.0
10
34.363203
20
13.436081
30
0.0
10
35.279944
20
14.076818
30
0.0
10
36.984316
20
14.855176
30
0.0
10
39.856816
20
16.051389
30
0.0
10
41.227468
20
19.223115
30
0.0
10
42.179359
20
21.698887
30
0.0
10
42.280574
20
22.300759
30
0.0
10
42.150177
20
22.544159
30
0.0
10
39.431349
20
23.877140
30
0.0
10
37.768372
20
24.617784
30
0.0
10
36.959055
20
24.736312
30
0.0
10
36.246856
20
24.339831
30
0.0
10
34.817372
20
23.842260
30
0.0
10
33.025595
20
23.268961
30
0.0
10
32.243866
20
22.799436
30
0.0
10
32.193958
20
22.546519
30
0.0
10
32.351188
20
22.251061
30
0.0
10
33.226567
20
21.441215
30
0.0
10
35.626952
20
19.402778
30
0.0
10
36.619530
20
18.520833
30
0.0
10
32.190673
20
16.936367
30
0.0
10
27.761816
20
15.169910
30
0.0
10
29.109053
20
14.190891
30
0.0
10
32.125754
20
12.399317
30
0.0
10
35.274407
20
10.672581
30
0.0
10
37.017500
20
9.888079
30
0.0
10
37.359211
20
10.259411
30
0.0
10
37.815881
20
11.166667
30
0.0
10
37.815881
20
11.166664
30
0.0
62
0
0
LWPOLYLINE
100
AcDbPolyline
8
Layer_1
90
38
70
0
10
26.512813
20
16.688249
30
0.0
10
26.473404
20
17.153422
30
0.0
10
26.753776
20
17.505080
30
0.0
10
28.975538
20
18.337857
30
0.0
10
30.858989
20
19.010882
30
0.0
10
31.642372
20
19.454540
30
0.0
10
30.967604
20
20.193241
30
0.0
10
29.345289
20
21.575629
30
0.0
10
27.801881
20
22.946861
30
0.0
10
27.316819
20
23.658748
30
0.0
10
31.113205
20
25.050761
30
0.0
10
34.917386
20
26.357495
30
0.0
10
34.824145
20
26.684036
30
0.0
10
34.211830
20
27.248527
30
0.0
10
31.113205
20
30.025399
30
0.0
10
28.996538
20
32.068333
30
0.0
10
25.044129
20
29.003628
30
0.0
10
22.294607
20
26.719538
30
0.0
10
21.626239
20
26.026604
30
0.0
10
21.516351
20
25.714700
30
0.0
10
23.263899
20
25.252861
30
0.0
10
24.080374
20
24.999689
30
0.0
10
24.521822
20
24.599687
30
0.0
10
24.589260
20
24.050961
30
0.0
10
24.283704
20
23.351614
30
0.0
10
24.038375
20
23.140435
30
0.0
10
23.587186
20
23.062403
30
0.0
10
21.656703
20
23.297292
30
0.0
10
19.882475
20
23.542647
30
0.0
10
18.895274
20
23.561616
30
0.0
10
18.808721
20
23.385864
30
0.0
10
18.968290
20
23.018912
30
0.0
10
19.939150
20
21.805884
30
0.0
10
21.634569
20
20.111488
30
0.0
10
23.881260
20
18.124684
30
0.0
10
26.622011
20
15.888710
30
0.0
10
26.512813
20
16.688249
30
0.0
10
26.512813
20
16.688249
30
0.0
62
0
0
LWPOLYLINE
100
AcDbPolyline
8
Layer_1
90
23
70
0
10
87.686772
20
17.079917
30
0.0
10
90.363164
20
19.378699
30
0.0
10
91.404790
20
20.472564
30
0.0
10
89.304831
20
22.612480
30
0.0
10
87.204872
20
24.752399
30
0.0
10
84.446528
20
24.520666
30
0.0
10
81.688178
20
24.288936
30
0.0
10
81.800694
20
25.461829
30
0.0
10
81.897760
20
26.102351
30
0.0
10
82.101684
20
26.469134
30
0.0
10
82.513970
20
26.652860
30
0.0
10
83.236122
20
26.744213
30
0.0
10
84.170431
20
26.897882
30
0.0
10
84.559038
20
27.113591
30
0.0
10
83.149158
20
28.750189
30
0.0
10
81.739274
20
30.126900
30
0.0
10
80.591519
20
29.055015
30
0.0
10
78.594836
20
27.231300
30
0.0
10
77.745915
20
26.479475
30
0.0
10
81.740525
20
21.177239
30
0.0
10
85.893571
20
15.875000
30
0.0
10
87.686772
20
17.079917
30
0.0
10
87.686772
20
17.079917
30
0.0
62
0
0
LWPOLYLINE
100
AcDbPolyline
8
Layer_1
90
10
70
0
10
53.161816
20
19.265880
30
0.0
10
54.749316
20
19.533297
30
0.0
10
52.279872
20
19.923506
30
0.0
10
49.697790
20
20.245378
30
0.0
10
49.695612
20
19.919402
30
0.0
10
50.069762
20
19.421201
30
0.0
10
50.593520
20
18.986364
30
0.0
10
51.040168
20
18.850480
30
0.0
10
53.161816
20
19.265880
30
0.0
10
53.161816
20
19.265880
30
0.0
62
0
0
LWPOLYLINE
100
AcDbPolyline
8
Layer_1
90
23
70
0
10
96.543763
20
26.332784
30
0.0
10
97.602000
20
27.794729
30
0.0
10
96.719785
20
28.372782
30
0.0
10
91.011502
20
31.979159
30
0.0
10
86.185431
20
35.007482
30
0.0
10
84.862509
20
33.466938
30
0.0
10
83.539584
20
31.926389
30
0.0
10
85.827018
20
29.610555
30
0.0
10
88.114449
20
27.294724
30
0.0
10
90.617308
20
27.593651
30
0.0
10
93.222561
20
27.790182
30
0.0
10
93.439911
20
26.632092
30
0.0
10
93.471955
20
26.038298
30
0.0
10
93.327432
20
25.709847
30
0.0
10
92.893063
20
25.551473
30
0.0
10
92.055566
20
25.467911
30
0.0
10
90.996681
20
25.323905
30
0.0
10
90.556261
20
25.130006
30
0.0
10
91.879177
20
23.541747
30
0.0
10
93.202094
20
22.182915
30
0.0
10
94.343810
20
23.526874
30
0.0
10
96.543763
20
26.332784
30
0.0
10
96.543763
20
26.332784
30
0.0
62
0
0
LWPOLYLINE
100
AcDbPolyline
8
Layer_1
90
250
70
0
10
61.628483
20
26.305126
30
0.0
10
61.516459
20
27.153699
30
0.0
10
61.247124
20
27.922841
30
0.0
10
60.987371
20
28.531772
30
0.0
10
61.112459
20
28.725015
30
0.0
10
62.702288
20
27.855920
30
0.0
10
63.943985
20
27.156724
30
0.0
10
64.247244
20
27.127569
30
0.0
10
64.380209
20
27.298272
30
0.0
10
64.704042
20
27.586117
30
0.0
10
65.367555
20
27.703848
30
0.0
10
66.150473
20
27.642830
30
0.0
10
66.832520
20
27.394425
30
0.0
10
67.383197
20
27.335044
30
0.0
10
68.171864
20
27.523115
30
0.0
10
69.042122
20
27.718955
30
0.0
10
69.788967
20
27.678256
30
0.0
10
70.264093
20
27.643173
30
0.0
10
70.447927
20
27.883906
30
0.0
10
70.681904
20
28.133951
30
0.0
10
71.363315
20
28.068950
30
0.0
10
72.254932
20
28.059994
30
0.0
10
73.393718
20
28.519610
30
0.0
10
74.968815
20
29.551767
30
0.0
10
77.169366
20
31.260432
30
0.0
10
78.753696
20
32.641168
30
0.0
10
80.234979
20
34.135535
30
0.0
10
82.874757
20
37.427622
30
0.0
10
85.061416
20
41.061613
30
0.0
10
86.767671
20
44.962425
30
0.0
10
87.966237
20
49.054977
30
0.0
10
88.629828
20
53.264189
30
0.0
10
88.731160
20
57.514977
30
0.0
10
88.562452
20
59.632500
30
0.0
10
88.242947
20
61.732262
30
0.0
10
87.659346
20
64.313771
30
0.0
10
86.909292
20
66.773386
30
0.0
10
85.988676
20
69.118703
30
0.0
10
84.893388
20
71.357316
30
0.0
10
83.619316
20
73.496820
30
0.0
10
82.162351
20
75.544811
30
0.0
10
80.518383
20
77.508882
30
0.0
10
78.683302
20
79.396630
30
0.0
10
76.242376
20
81.542660
30
0.0
10
73.708561
20
83.385971
30
0.0
10
71.071661
20
84.930569
30
0.0
10
68.321479
20
86.180457
30
0.0
10
65.447822
20
87.139641
30
0.0
10
62.440492
20
87.812126
30
0.0
10
59.289297
20
88.201915
30
0.0
10
55.984038
20
88.313015
30
0.0
10
51.825300
20
88.033295
30
0.0
10
47.846401
20
87.286012
30
0.0
10
44.196757
20
86.108858
30
0.0
10
41.025786
20
84.539526
30
0.0
10
39.649485
20
83.702395
30
0.0
10
41.462130
20
83.702395
30
0.0
10
42.901490
20
83.570292
30
0.0
10
43.816651
20
83.252683
30
0.0
10
44.216076
20
82.998388
30
0.0
10
44.120565
20
83.423074
30
0.0
10
44.057798
20
83.866384
30
0.0
10
44.684230
20
83.614167
30
0.0
10
45.219815
20
83.393857
30
0.0
10
45.246067
20
83.573126
30
0.0
10
45.250006
20
83.813233
30
0.0
10
45.539891
20
83.975189
30
0.0
10
46.635427
20
83.967541
30
0.0
10
47.810279
20
83.794778
30
0.0
10
48.710573
20
83.490855
30
0.0
10
49.720712
20
82.894466
30
0.0
10
50.581558
20
82.333659
30
0.0
10
50.640872
20
82.428008
30
0.0
10
50.520575
20
82.760871
30
0.0
10
50.070851
20
84.578461
30
0.0
10
50.061845
20
85.474697
30
0.0
10
50.200211
20
85.666959
30
0.0
10
50.445710
20
85.724989
30
0.0
10
51.430756
20
85.295811
30
0.0
10
52.885071
20
84.190188
30
0.0
10
54.489466
20
82.680988
30
0.0
10
55.924749
20
81.041079
30
0.0
10
57.478922
20
79.357934
30
0.0
10
58.243989
20
78.835017
30
0.0
10
59.099749
20
78.443791
30
0.0
10
61.628483
20
77.299191
30
0.0
10
63.172470
20
76.107906
30
0.0
10
65.173739
20
74.262095
30
0.0
10
67.040519
20
72.338446
30
0.0
10
68.181037
20
70.913645
30
0.0
10
69.245530
20
69.775983
30
0.0
10
71.216325
20
68.207650
30
0.0
10
73.737635
20
66.470453
30
0.0
10
76.453673
20
64.826196
30
0.0
10
77.175341
20
64.271753
30
0.0
10
77.322101
20
64.019304
30
0.0
10
77.302024
20
63.812203
30
0.0
10
76.442050
20
63.220596
30
0.0
10
74.721534
20
62.359814
30
0.0
10
72.886610
20
61.418669
30
0.0
10
71.751574
20
60.633850
30
0.0
10
71.135524
20
60.163616
30
0.0
10
70.891443
20
60.226856
30
0.0
10
70.598750
20
60.476551
30
0.0
10
70.261939
20
60.971555
30
0.0
10
70.177042
20
61.436803
30
0.0
10
70.098750
20
61.615052
30
0.0
10
69.799662
20
61.785228
30
0.0
10
68.616405
20
62.087734
30
0.0
10
64.450705
20
62.445996
30
0.0
10
61.475676
20
62.398319
30
0.0
10
60.743385
20
62.158593
30
0.0
10
60.075278
20
61.700049
30
0.0
10
59.412657
20
61.013665
30
0.0
10
59.381781
20
60.746688
30
0.0
10
59.528908
20
60.480784
30
0.0
10
59.740113
20
60.052061
30
0.0
10
59.690483
20
59.661261
30
0.0
10
59.413090
20
59.376691
30
0.0
10
58.941010
20
59.266655
30
0.0
10
58.626905
20
59.363124
30
0.0
10
58.614804
20
59.595058
30
0.0
10
58.636667
20
59.902078
30
0.0
10
58.404179
20
60.179074
30
0.0
10
58.222772
20
60.195139
30
0.0
10
58.134260
20
59.992068
30
0.0
10
58.196353
20
59.135237
30
0.0
10
58.511327
20
58.022015
30
0.0
10
59.000051
20
57.065839
30
0.0
10
59.467951
20
56.511170
30
0.0
10
59.415688
20
56.973600
30
0.0
10
58.984927
20
58.296516
30
0.0
10
58.908526
20
58.743658
30
0.0
10
59.121294
20
58.913878
30
0.0
10
59.397101
20
58.755183
30
0.0
10
59.511816
20
58.373642
30
0.0
10
59.655878
20
57.936813
30
0.0
10
60.002239
20
57.645207
30
0.0
10
60.300390
20
57.266829
30
0.0
10
60.434405
20
56.620678
30
0.0
10
60.384072
20
56.010273
30
0.0
10
60.129177
20
55.739129
30
0.0
10
59.942315
20
55.583509
30
0.0
10
59.864594
20
55.209711
30
0.0
10
59.972766
20
54.835987
30
0.0
10
60.232838
20
54.680544
30
0.0
10
60.462459
20
54.499195
30
0.0
10
60.497421
20
54.063183
30
0.0
10
60.499151
20
53.768295
30
0.0
10
60.638549
20
53.575797
30
0.0
10
61.427222
20
53.432236
30
0.0
10
62.202499
20
53.314075
30
0.0
10
62.554446
20
53.016335
30
0.0
10
62.466274
20
52.585392
30
0.0
10
61.921192
20
52.067621
30
0.0
10
61.006462
20
51.672178
30
0.0
10
59.888509
20
51.524886
30
0.0
10
58.787531
20
51.629934
30
0.0
10
57.923726
20
51.991517
30
0.0
10
56.928936
20
53.303964
30
0.0
10
55.470479
20
55.776992
30
0.0
10
54.111993
20
58.069488
30
0.0
10
53.543254
20
58.793471
30
0.0
10
53.004501
20
59.264706
30
0.0
10
52.462970
20
59.504766
30
0.0
10
51.885898
20
59.535223
30
0.0
10
50.494080
20
59.053617
30
0.0
10
49.447327
20
58.418071
30
0.0
10
48.974401
20
57.892035
30
0.0
10
48.966862
20
57.704893
30
0.0
10
49.119267
20
57.586900
30
0.0
10
49.925890
20
57.614055
30
0.0
10
50.758994
20
57.668051
30
0.0
10
51.228679
20
57.491212
30
0.0
10
51.242008
20
57.247073
30
0.0
10
50.977775
20
57.139261
30
0.0
10
50.805838
20
57.034829
30
0.0
10
51.133344
20
56.768955
30
0.0
10
51.517424
20
56.403662
30
0.0
10
51.731401
20
55.944917
30
0.0
10
51.734545
20
55.552415
30
0.0
10
51.486122
20
55.385849
30
0.0
10
51.284314
20
55.126678
30
0.0
10
51.170665
20
54.503904
30
0.0
10
51.227404
20
53.881208
30
0.0
10
51.435248
20
53.622211
30
0.0
10
51.658039
20
53.477855
30
0.0
10
51.750705
20
53.130789
30
0.0
10
51.906148
20
52.724071
30
0.0
10
52.279872
20
52.436302
30
0.0
10
52.652408
20
52.334645
30
0.0
10
52.775416
20
52.456269
30
0.0
10
52.270812
20
53.639731
30
0.0
10
51.985735
20
54.374806
30
0.0
10
52.056126
20
54.680544
30
0.0
10
52.483643
20
54.247260
30
0.0
10
52.943540
20
53.246878
30
0.0
10
53.269247
20
52.128609
30
0.0
10
53.294198
20
51.341661
30
0.0
10
53.054034
20
51.020347
30
0.0
10
52.766324
20
51.002779
30
0.0
10
52.598840
20
51.239608
30
0.0
10
52.647726
20
51.529920
30
0.0
10
52.629508
20
51.761853
30
0.0
10
52.300700
20
51.858322
30
0.0
10
51.936270
20
51.713792
30
0.0
10
51.765735
20
51.370388
30
0.0
10
51.811574
20
50.963388
30
0.0
10
52.096266
20
50.628067
30
0.0
10
52.250047
20
50.238813
30
0.0
10
51.969725
20
49.683847
30
0.0
10
51.377188
20
49.119474
30
0.0
10
50.594325
20
48.702002
30
0.0
10
49.394396
20
48.531626
30
0.0
10
47.804880
20
48.695681
30
0.0
10
44.382425
20
49.040895
30
0.0
10
41.986443
20
49.270302
30
0.0
10
41.394014
20
49.530891
30
0.0
10
41.269499
20
49.871599
30
0.0
10
41.218632
20
50.292448
30
0.0
10
40.912432
20
50.752539
30
0.0
10
40.632572
20
50.977998
30
0.0
10
40.372530
20
51.023238
30
0.0
10
39.649360
20
50.525962
30
0.0
10
38.402499
20
49.706643
30
0.0
10
36.493075
20
48.740283
30
0.0
10
34.811317
20
47.841095
30
0.0
10
34.111825
20
47.183266
30
0.0
10
34.450719
20
46.678454
30
0.0
10
35.265507
20
46.147163
30
0.0
10
37.638016
20
44.835665
30
0.0
10
40.077844
20
43.213224
30
0.0
10
42.080199
20
41.642679
30
0.0
10
43.140289
20
40.486866
30
0.0
10
43.836910
20
39.475867
30
0.0
10
45.043058
20
38.145144
30
0.0
10
48.755980
20
34.757117
30
0.0
10
50.340521
20
33.697679
30
0.0
10
52.163159
20
32.821674
30
0.0
10
53.217583
20
32.368767
30
0.0
10
54.050445
20
31.844477
30
0.0
10
54.801838
20
31.140165
30
0.0
10
55.611852
20
30.147187
30
0.0
10
57.008160
20
28.543052
30
0.0
10
58.637739
20
27.007021
30
0.0
10
60.134162
20
25.854272
30
0.0
10
61.131004
20
25.399983
30
0.0
10
61.491822
20
25.648640
30
0.0
10
61.628491
20
26.305121
30
0.0
10
61.628483
20
26.305126
30
0.0
62
0
0
LWPOLYLINE
100
AcDbPolyline
8
Layer_1
90
13
70
0
10
44.639924
20
42.137262
30
0.0
10
44.395333
20
42.822641
30
0.0
10
44.386051
20
43.200165
30
0.0
10
45.051496
20
43.155547
30
0.0
10
46.223856
20
42.747557
30
0.0
10
47.319678
20
42.217491
30
0.0
10
47.755514
20
41.806650
30
0.0
10
47.293396
20
41.523620
30
0.0
10
46.345658
20
41.342025
30
0.0
10
45.212071
20
41.416704
30
0.0
10
44.899631
20
41.675824
30
0.0
10
44.639924
20
42.137262
30
0.0
10
44.639924
20
42.137262
30
0.0
62
0
0
LWPOLYLINE
100
AcDbPolyline
8
Layer_1
90
27
70
0
10
17.355048
20
28.576984
30
0.0
10
17.619636
20
30.625978
30
0.0
10
17.904708
20
31.586384
30
0.0
10
18.374148
20
31.652479
30
0.0
10
19.081998
20
31.551318
30
0.0
10
19.564630
20
31.386845
30
0.0
10
19.801304
20
31.099152
30
0.0
10
19.745762
20
29.512054
30
0.0
10
19.662682
20
28.098163
30
0.0
10
19.783259
20
27.951093
30
0.0
10
20.030886
20
28.082133
30
0.0
10
23.881260
20
31.045977
30
0.0
10
27.360778
20
33.724844
30
0.0
10
27.152902
20
34.311399
30
0.0
10
26.464905
20
35.435829
30
0.0
10
25.674692
20
36.530752
30
0.0
10
25.160170
20
37.028786
30
0.0
10
21.409113
20
35.782383
30
0.0
10
14.651419
20
33.275391
30
0.0
10
12.300743
20
32.368078
30
0.0
10
13.709980
20
30.065658
30
0.0
10
15.805900
20
26.851823
30
0.0
10
16.467122
20
26.030142
30
0.0
10
16.855332
20
25.752778
30
0.0
10
17.105132
20
26.582388
30
0.0
10
17.355048
20
28.576984
30
0.0
10
17.355048
20
28.576984
30
0.0
62
0
0
LWPOLYLINE
100
AcDbPolyline
8
Layer_1
90
15
70
0
10
100.010860
20
31.672062
30
0.0
10
100.822404
20
33.129796
30
0.0
10
99.400510
20
34.027395
30
0.0
10
98.198880
20
34.661330
30
0.0
10
97.306562
20
34.925000
30
0.0
10
94.842255
20
34.340751
30
0.0
10
93.573435
20
33.880577
30
0.0
10
93.026755
20
33.548492
30
0.0
10
93.883227
20
32.845645
30
0.0
10
95.794393
20
31.648477
30
0.0
10
97.776686
20
30.539549
30
0.0
10
98.846538
20
30.101424
30
0.0
10
99.334079
20
30.609372
30
0.0
10
100.010860
20
31.672062
30
0.0
10
100.010860
20
31.672062
30
0.0
62
0
0
LWPOLYLINE
100
AcDbPolyline
8
Layer_1
90
31
70
0
10
12.200900
20
37.482639
30
0.0
10
12.624791
20
40.500565
30
0.0
10
12.999262
20
41.811951
30
0.0
10
13.264135
20
41.953656
30
0.0
10
13.632060
20
41.819883
30
0.0
10
14.830933
20
40.927449
30
0.0
10
16.024826
20
40.076864
30
0.0
10
16.410047
20
39.916761
30
0.0
10
16.692365
20
39.956617
30
0.0
10
16.900466
20
40.213807
30
0.0
10
17.063036
20
40.705706
30
0.0
10
17.366327
20
42.463133
30
0.0
10
17.760501
20
44.097222
30
0.0
10
20.980075
20
41.477224
30
0.0
10
24.166000
20
38.972702
30
0.0
10
23.423973
20
40.798950
30
0.0
10
22.122917
20
43.920833
30
0.0
10
21.402466
20
45.633818
30
0.0
10
19.301757
20
45.527170
30
0.0
10
14.915912
20
44.964088
30
0.0
10
10.490066
20
44.265925
30
0.0
10
8.269351
20
43.754034
30
0.0
10
8.251207
20
43.232104
30
0.0
10
8.497059
20
42.099329
30
0.0
10
9.495060
20
38.840139
30
0.0
10
10.691973
20
35.654249
30
0.0
10
11.186465
20
34.613099
30
0.0
10
11.516418
20
34.219444
30
0.0
10
11.814608
20
35.178008
30
0.0
10
12.200900
20
37.482639
30
0.0
10
12.200900
20
37.482639
30
0.0
62
0
0
LWPOLYLINE
100
AcDbPolyline
8
Layer_1
90
9
70
0
10
92.604429
20
36.015718
30
0.0
10
94.789594
20
36.836093
30
0.0
10
92.171294
20
38.575069
30
0.0
10
89.397679
20
40.216667
30
0.0
10
88.269906
20
38.602679
30
0.0
10
87.438354
20
36.902906
30
0.0
10
90.223179
20
35.283721
30
0.0
10
92.604429
20
36.015718
30
0.0
10
92.604429
20
36.015718
30
0.0
62
0
0
LWPOLYLINE
100
AcDbPolyline
8
Layer_1
90
22
70
0
10
103.179832
20
38.541229
30
0.0
10
104.489397
20
42.659579
30
0.0
10
104.592466
20
43.312281
30
0.0
10
104.529918
20
43.427918
30
0.0
10
104.351034
20
43.381395
30
0.0
10
101.867919
20
41.248468
30
0.0
10
98.715920
20
38.533098
30
0.0
10
98.397776
20
39.426128
30
0.0
10
98.011180
20
41.708098
30
0.0
10
97.631288
20
44.082548
30
0.0
10
97.329250
20
45.197914
30
0.0
10
94.406356
20
46.300788
30
0.0
10
91.730065
20
47.184920
30
0.0
10
90.976464
20
44.867028
30
0.0
10
90.301369
20
42.480600
30
0.0
10
94.436816
20
39.867349
30
0.0
10
100.040612
20
36.308778
30
0.0
10
101.212967
20
35.642107
30
0.0
10
101.859427
20
35.462989
30
0.0
10
102.359479
20
36.436557
30
0.0
10
103.179832
20
38.541229
30
0.0
10
103.179832
20
38.541229
30
0.0
62
0
0
LWPOLYLINE
100
AcDbPolyline
8
Layer_1
90
11
70
0
10
16.094398
20
36.559970
30
0.0
10
16.008316
20
36.827668
30
0.0
10
15.561175
20
37.189882
30
0.0
10
15.013231
20
37.476830
30
0.0
10
14.624736
20
37.518732
30
0.0
10
14.435126
20
37.193422
30
0.0
10
14.356262
20
36.644298
30
0.0
10
14.512890
20
36.123742
30
0.0
10
15.150012
20
36.179774
30
0.0
10
16.094398
20
36.559970
30
0.0
10
16.094398
20
36.559970
30
0.0
62
0
0
LWPOLYLINE
100
AcDbPolyline
8
Layer_1
90
12
70
0
10
20.206346
20
38.111120
30
0.0
10
20.935451
20
38.495056
30
0.0
10
20.849163
20
38.689734
30
0.0
10
20.493897
20
38.981846
30
0.0
10
19.928720
20
39.365167
30
0.0
10
19.575735
20
39.447771
30
0.0
10
19.360560
20
39.209242
30
0.0
10
19.208809
20
38.629167
30
0.0
10
19.107693
20
38.052362
30
0.0
10
19.168212
20
37.811160
30
0.0
10
20.206346
20
38.111120
30
0.0
10
20.206346
20
38.111120
30
0.0
62
0
0
LWPOLYLINE
100
AcDbPolyline
8
Layer_1
90
10
70
0
10
101.044259
20
43.634832
30
0.0
10
100.972827
20
43.961331
30
0.0
10
100.625334
20
44.219074
30
0.0
10
100.210305
20
44.206649
30
0.0
10
100.081261
20
43.703974
30
0.0
10
100.198503
20
43.287299
30
0.0
10
100.474157
20
43.131422
30
0.0
10
100.794113
20
43.244536
30
0.0
10
101.044259
20
43.634832
30
0.0
10
101.044259
20
43.634832
30
0.0
62
0
0
LWPOLYLINE
100
AcDbPolyline
8
Layer_1
90
9
70
0
10
8.194867
20
50.040760
30
0.0
10
6.521497
20
51.681944
30
0.0
10
6.763522
20
49.918056
30
0.0
10
7.369540
20
46.428149
30
0.0
10
7.733533
20
44.702135
30
0.0
10
8.800885
20
46.550854
30
0.0
10
9.868237
20
48.399573
30
0.0
10
8.194867
20
50.040757
30
0.0
10
8.194867
20
50.040760
30
0.0
62
0
0
LWPOLYLINE
100
AcDbPolyline
8
Layer_1
90
16
70
0
10
105.719874
20
48.110831
30
0.0
10
105.977825
20
50.665473
30
0.0
10
102.742388
20
52.535653
30
0.0
10
99.635479
20
54.277305
30
0.0
10
95.964674
20
52.451691
30
0.0
10
93.110397
20
50.910475
30
0.0
10
92.491675
20
50.342880
30
0.0
10
92.451495
20
49.834525
30
0.0
10
93.019554
20
49.328330
30
0.0
10
94.225551
20
48.767217
30
0.0
10
98.670150
20
47.251928
30
0.0
10
103.102176
20
45.906888
30
0.0
10
105.088577
20
45.471808
30
0.0
10
105.375006
20
46.334848
30
0.0
10
105.719874
20
48.110831
30
0.0
10
105.719874
20
48.110831
30
0.0
62
0
0
LWPOLYLINE
100
AcDbPolyline
8
Layer_1
90
19
70
0
10
16.825706
20
47.589931
30
0.0
10
20.529871
20
48.207975
30
0.0
10
20.436764
20
49.932237
30
0.0
10
20.294728
20
51.217394
30
0.0
10
20.083986
20
51.885937
30
0.0
10
18.695994
20
51.815143
30
0.0
10
15.854060
20
51.428753
30
0.0
10
12.997493
20
50.946236
30
0.0
10
11.565600
20
50.587058
30
0.0
10
11.656154
20
50.278270
30
0.0
10
12.077244
20
49.726156
30
0.0
10
12.539695
20
48.942467
30
0.0
10
12.340910
20
47.960102
30
0.0
10
12.117361
20
47.254741
30
0.0
10
12.192465
20
47.067588
30
0.0
10
12.471787
20
46.984215
30
0.0
10
13.881973
20
47.109090
30
0.0
10
16.825706
20
47.589931
30
0.0
10
16.825706
20
47.589931
30
0.0
62
0
0
LWPOLYLINE
100
AcDbPolyline
8
Layer_1
90
17
70
0
10
13.915290
20
53.476480
30
0.0
10
18.896156
20
54.365733
30
0.0
10
19.776668
20
54.688925
30
0.0
10
20.000705
20
55.038120
30
0.0
10
19.862391
20
55.458470
30
0.0
10
18.976292
20
55.771023
30
0.0
10
12.133783
20
56.653060
30
0.0
10
8.057243
20
57.025352
30
0.0
10
7.007538
20
57.017065
30
0.0
10
6.539159
20
56.882340
30
0.0
10
6.328043
20
56.043787
30
0.0
10
6.416457
20
54.347635
30
0.0
10
6.730654
20
52.633368
30
0.0
10
6.945975
20
52.358557
30
0.0
10
7.248581
20
52.355948
30
0.0
10
13.915290
20
53.476480
30
0.0
10
13.915290
20
53.476480
30
0.0
62
0
0
LWPOLYLINE
100
AcDbPolyline
8
Layer_1
90
11
70
0
10
106.431261
20
55.567580
30
0.0
10
106.431261
20
57.865713
30
0.0
10
104.257447
20
56.768376
30
0.0
10
102.083630
20
55.671034
30
0.0
10
103.287308
20
54.945873
30
0.0
10
105.196538
20
53.763582
30
0.0
10
105.871647
20
53.394084
30
0.0
10
106.242507
20
53.483976
30
0.0
10
106.399063
20
54.164670
30
0.0
10
106.431261
20
55.567580
30
0.0
10
106.431261
20
55.567580
30
0.0
62
0
0
LWPOLYLINE
100
AcDbPolyline
8
Layer_1
90
9
70
0
10
94.784328
20
54.592361
30
0.0
10
96.548400
20
55.771017
30
0.0
10
94.865073
20
56.894218
30
0.0
10
92.889770
20
57.855556
30
0.0
10
92.736624
20
57.233785
30
0.0
10
92.672927
20
55.738889
30
0.0
10
92.849133
20
53.622222
30
0.0
10
94.784328
20
54.592361
30
0.0
10
94.784328
20
54.592361
30
0.0
62
0
0
LWPOLYLINE
100
AcDbPolyline
8
Layer_1
90
24
70
0
10
102.977476
20
58.794822
30
0.0
10
106.162150
20
60.439641
30
0.0
10
105.932213
20
62.396051
30
0.0
10
105.500918
20
65.154737
30
0.0
10
105.299561
20
65.957004
30
0.0
10
104.652792
20
65.169474
30
0.0
10
104.196403
20
64.677687
30
0.0
10
103.955510
20
64.612305
30
0.0
10
103.627439
20
64.703003
30
0.0
10
102.473616
20
65.459845
30
0.0
10
100.262650
20
67.162635
30
0.0
10
97.478424
20
69.102913
30
0.0
10
95.518760
20
65.514703
30
0.0
10
93.874336
20
62.721641
30
0.0
10
93.395317
20
62.293837
30
0.0
10
92.965329
20
62.284441
30
0.0
10
92.417888
20
62.309799
30
0.0
10
92.379492
20
61.687631
30
0.0
10
92.601328
20
61.203717
30
0.0
10
93.206468
20
60.653243
30
0.0
10
96.024316
20
59.017326
30
0.0
10
99.672445
20
57.158455
30
0.0
10
102.977473
20
58.794822
30
0.0
10
102.977476
20
58.794822
30
0.0
62
0
0
LWPOLYLINE
100
AcDbPolyline
8
Layer_1
90
18
70
0
10
20.174438
20
59.531250
30
0.0
10
20.664539
20
62.508155
30
0.0
10
20.948935
20
64.162138
30
0.0
10
19.681071
20
64.341547
30
0.0
10
17.035908
20
64.701341
30
0.0
10
15.619290
20
64.738304
30
0.0
10
14.824490
20
64.358328
30
0.0
10
14.044779
20
63.467302
30
0.0
10
12.851352
20
62.024616
30
0.0
10
13.658985
20
60.557450
30
0.0
10
14.602656
20
58.928457
30
0.0
10
16.300370
20
58.553073
30
0.0
10
19.014581
20
58.255467
30
0.0
10
19.525698
20
58.272984
30
0.0
10
19.842336
20
58.439708
30
0.0
10
20.035061
20
58.833258
30
0.0
10
20.174438
20
59.531250
30
0.0
10
20.174438
20
59.531250
30
0.0
62
0
0
LWPOLYLINE
100
AcDbPolyline
8
Layer_1
90
13
70
0
10
9.147546
20
61.505849
30
0.0
10
9.867073
20
62.510309
30
0.0
10
8.869962
20
64.596504
30
0.0
10
8.091410
20
65.991028
30
0.0
10
7.796716
20
66.353880
30
0.0
10
7.619771
20
66.414266
30
0.0
10
7.331303
20
65.490506
30
0.0
10
6.993353
20
63.652722
30
0.0
10
6.595151
20
59.931345
30
0.0
10
6.595151
20
58.790899
30
0.0
10
7.511585
20
59.646145
30
0.0
10
9.147546
20
61.505849
30
0.0
10
9.147546
20
61.505849
30
0.0
62
0
0
LWPOLYLINE
100
AcDbPolyline
8
Layer_1
90
10
70
0
10
11.655892
20
59.457963
30
0.0
10
11.417263
20
59.784284
30
0.0
10
11.101227
20
59.866135
30
0.0
10
10.787688
20
59.712613
30
0.0
10
10.556551
20
59.332814
30
0.0
10
10.668843
20
59.036110
30
0.0
10
11.140792
20
58.913889
30
0.0
10
11.643462
20
59.042933
30
0.0
10
11.655892
20
59.457963
30
0.0
10
11.655892
20
59.457963
30
0.0
62
0
0
LWPOLYLINE
100
AcDbPolyline
8
Layer_1
90
10
70
0
10
12.090531
20
65.559658
30
0.0
10
11.612220
20
65.594775
30
0.0
10
11.318606
20
65.489530
30
0.0
10
11.226755
20
65.258797
30
0.0
10
11.353732
20
64.917450
30
0.0
10
11.668312
20
64.720619
30
0.0
10
12.149550
20
64.982175
30
0.0
10
12.513443
20
65.385357
30
0.0
10
12.090531
20
65.559658
30
0.0
10
12.090531
20
65.559658
30
0.0
62
0
0
LWPOLYLINE
100
AcDbPolyline
8
Layer_1
90
41
70
0
10
94.255435
20
68.968056
30
0.0
10
96.550720
20
73.136438
30
0.0
10
96.941087
20
73.019585
30
0.0
10
97.811085
20
72.488641
30
0.0
10
100.474921
20
70.526978
30
0.0
10
104.607710
20
67.261856
30
0.0
10
104.803245
20
67.176822
30
0.0
10
104.910434
20
67.288518
30
0.0
10
104.883836
20
68.030453
30
0.0
10
104.035206
20
71.086987
30
0.0
10
102.446882
20
75.285151
30
0.0
10
100.503925
20
79.478635
30
0.0
10
98.511301
20
82.889031
30
0.0
10
98.352417
20
82.789343
30
0.0
10
98.258664
20
82.153437
30
0.0
10
98.259533
20
79.169421
30
0.0
10
98.279578
20
76.324820
30
0.0
10
98.161283
20
75.141667
30
0.0
10
95.802168
20
76.223100
30
0.0
10
93.580136
20
77.193236
30
0.0
10
92.998473
20
74.259722
30
0.0
10
92.692436
20
72.648941
30
0.0
10
92.419224
20
71.796484
30
0.0
10
92.038423
20
71.443566
30
0.0
10
91.409622
20
71.331399
30
0.0
10
90.322708
20
71.225300
30
0.0
10
90.773569
20
73.977232
30
0.0
10
91.153750
20
76.389408
30
0.0
10
91.222341
20
77.536741
30
0.0
10
91.122080
20
77.740663
30
0.0
10
90.922670
20
77.753863
30
0.0
10
90.198067
20
77.375408
30
0.0
10
88.223779
20
76.020995
30
0.0
10
87.313237
20
75.294956
30
0.0
10
88.764260
20
72.417294
30
0.0
10
90.018540
20
69.656562
30
0.0
10
90.996544
20
67.060033
30
0.0
10
91.613416
20
65.383294
30
0.0
10
91.999441
20
64.833968
30
0.0
10
94.255435
20
68.968056
30
0.0
10
94.255435
20
68.968056
30
0.0
62
0
0
LWPOLYLINE
100
AcDbPolyline
8
Layer_1
90
18
70
0
10
22.021444
20
67.897609
30
0.0
10
22.261909
20
68.724390
30
0.0
10
22.160313
20
68.996383
30
0.0
10
21.777592
20
69.227912
30
0.0
10
19.769057
20
69.730982
30
0.0
10
15.436867
20
70.556405
30
0.0
10
9.296439
20
71.724057
30
0.0
10
8.901077
20
71.255162
30
0.0
10
8.429572
20
70.128025
30
0.0
10
8.087379
20
68.929791
30
0.0
10
8.079954
20
68.247607
30
0.0
10
13.431729
20
67.424349
30
0.0
10
20.206100
20
66.721135
30
0.0
10
21.009908
20
66.725510
30
0.0
10
21.488184
20
66.863284
30
0.0
10
21.779255
20
67.224101
30
0.0
10
22.021444
20
67.897606
30
0.0
10
22.021444
20
67.897609
30
0.0
62
0
0
LWPOLYLINE
100
AcDbPolyline
8
Layer_1
90
12
70
0
10
66.711319
20
68.968056
30
0.0
10
66.190213
20
69.510954
30
0.0
10
65.544996
20
69.796590
30
0.0
10
64.842540
20
69.810118
30
0.0
10
64.149715
20
69.536694
30
0.0
10
64.017267
20
69.368758
30
0.0
10
64.140200
20
69.181419
30
0.0
10
65.208048
20
68.704629
30
0.0
10
67.000673
20
68.189480
30
0.0
10
67.049581
20
68.405370
30
0.0
10
66.711319
20
68.968056
30
0.0
10
66.711319
20
68.968056
30
0.0
62
0
0
LWPOLYLINE
100
AcDbPolyline
8
Layer_1
90
40
70
0
10
25.292371
20
75.042463
30
0.0
10
24.964994
20
74.980978
30
0.0
10
24.726167
20
74.966212
30
0.0
10
24.517878
20
75.303617
30
0.0
10
24.069158
20
77.364175
30
0.0
10
23.764767
20
78.388360
30
0.0
10
23.544133
20
78.554097
30
0.0
10
23.244604
20
78.536221
30
0.0
10
20.847236
20
78.139950
30
0.0
10
19.047931
20
77.912200
30
0.0
10
18.730569
20
80.142904
30
0.0
10
18.502670
20
81.524840
30
0.0
10
18.148018
20
82.175346
30
0.0
10
17.387182
20
82.284790
30
0.0
10
15.940732
20
82.043541
30
0.0
10
14.959115
20
81.970072
30
0.0
10
14.764327
20
82.100689
30
0.0
10
14.709040
20
82.357626
30
0.0
10
14.669763
20
82.743935
30
0.0
10
14.547840
20
82.890575
30
0.0
10
14.031497
20
82.431025
30
0.0
10
13.110897
20
80.911327
30
0.0
10
11.736926
20
78.263829
30
0.0
10
9.417373
20
73.242805
30
0.0
10
9.767469
20
73.428519
30
0.0
10
10.678628
20
74.332296
30
0.0
10
13.349345
20
77.409435
30
0.0
10
13.697756
20
77.811262
30
0.0
10
13.956185
20
77.951186
30
0.0
10
14.242706
20
77.834170
30
0.0
10
14.675389
20
77.465177
30
0.0
10
15.414595
20
76.561600
30
0.0
10
14.189203
20
74.895402
30
0.0
10
12.963811
20
73.463810
30
0.0
10
15.864898
20
72.876963
30
0.0
10
21.059038
20
71.842870
30
0.0
10
23.352094
20
71.395618
30
0.0
10
24.322233
20
73.148616
30
0.0
10
25.292371
20
75.042463
30
0.0
10
25.292371
20
75.042463
30
0.0
62
0
0
LWPOLYLINE
100
AcDbPolyline
8
Layer_1
90
9
70
0
10
28.298199
20
79.303973
30
0.0
10
27.274277
20
79.177535
30
0.0
10
26.814372
20
79.015740
30
0.0
10
26.531961
20
78.776336
30
0.0
10
26.350705
20
77.850777
30
0.0
10
26.350705
20
76.755820
30
0.0
10
27.374627
20
77.977215
30
0.0
10
28.298199
20
79.303976
30
0.0
10
28.298199
20
79.303973
30
0.0
62
0
0
LWPOLYLINE
100
AcDbPolyline
8
Layer_1
90
40
70
0
10
91.967372
20
80.955972
30
0.0
10
95.297651
20
83.043012
30
0.0
10
96.805666
20
84.216177
30
0.0
10
97.026746
20
84.640551
30
0.0
10
96.972766
20
85.053053
30
0.0
10
96.280297
20
86.131228
30
0.0
10
93.287844
20
89.769034
30
0.0
10
91.776511
20
91.384940
30
0.0
10
91.048250
20
91.979031
30
0.0
10
92.341604
20
89.163698
30
0.0
10
93.469991
20
86.774806
30
0.0
10
93.415827
20
86.350909
30
0.0
10
93.029936
20
86.080042
30
0.0
10
92.407355
20
85.848722
30
0.0
10
91.879012
20
86.050442
30
0.0
10
91.253866
20
86.851238
30
0.0
10
90.340874
20
88.417149
30
0.0
10
89.589084
20
89.728684
30
0.0
10
89.128716
20
90.338789
30
0.0
10
88.781205
20
90.394665
30
0.0
10
88.367986
20
90.043514
30
0.0
10
88.000255
20
89.605493
30
0.0
10
87.948381
20
89.096797
30
0.0
10
89.032938
20
86.632430
30
0.0
10
90.379872
20
83.903329
30
0.0
10
89.533846
20
83.215980
30
0.0
10
88.687820
20
82.528633
30
0.0
10
87.466229
20
84.744177
30
0.0
10
86.084912
20
87.129194
30
0.0
10
85.332014
20
86.539879
30
0.0
10
83.856715
20
85.017483
30
0.0
10
82.412326
20
83.377847
30
0.0
10
81.752161
20
82.436812
30
0.0
10
82.383132
20
81.515453
30
0.0
10
83.921696
20
79.706907
30
0.0
10
85.882904
20
77.713257
30
0.0
10
86.378436
20
77.545622
30
0.0
10
86.832113
20
77.740578
30
0.0
10
91.967372
20
80.955972
30
0.0
10
91.967372
20
80.955972
30
0.0
62
0
0
LWPOLYLINE
100
AcDbPolyline
8
Layer_1
90
12
70
0
10
96.200705
20
79.727778
30
0.0
10
96.148232
20
80.427800
30
0.0
10
95.945962
20
80.725187
30
0.0
10
95.526624
20
80.643254
30
0.0
10
94.822944
20
80.205320
30
0.0
10
93.993753
20
79.624532
30
0.0
10
94.832647
20
79.159489
30
0.0
10
95.558531
20
78.798841
30
0.0
10
95.971898
20
78.749827
30
0.0
10
96.157654
20
79.047716
30
0.0
10
96.200705
20
79.727778
30
0.0
10
96.200705
20
79.727778
30
0.0
62
0
0
LWPOLYLINE
100
AcDbPolyline
8
Layer_1
90
17
70
0
10
23.175705
20
82.060872
30
0.0
10
23.127183
20
82.806302
30
0.0
10
22.920656
20
83.164881
30
0.0
10
22.464685
20
83.189500
30
0.0
10
21.667828
20
82.933049
30
0.0
10
21.252255
20
82.729123
30
0.0
10
21.015978
20
82.472735
30
0.0
10
20.969723
20
81.587501
30
0.0
10
21.081972
20
81.050723
30
0.0
10
21.267620
20
80.762053
30
0.0
10
21.598837
20
80.668063
30
0.0
10
22.147789
20
80.715324
30
0.0
10
22.689487
20
80.833861
30
0.0
10
23.000490
20
81.044117
30
0.0
10
23.142122
20
81.426363
30
0.0
10
23.175705
20
82.060872
30
0.0
10
23.175705
20
82.060872
30
0.0
62
0
0
LWPOLYLINE
100
AcDbPolyline
8
Layer_1
90
42
70
0
10
30.876268
20
82.844457
30
0.0
10
30.138742
20
83.026470
30
0.0
10
29.795570
20
83.432798
30
0.0
10
29.789973
20
84.265091
30
0.0
10
30.065170
20
85.725001
30
0.0
10
30.467652
20
87.729560
30
0.0
10
30.441758
20
88.786340
30
0.0
10
30.217304
20
89.082809
30
0.0
10
29.824716
20
89.290528
30
0.0
10
28.453755
20
89.637312
30
0.0
10
26.010181
20
90.303540
30
0.0
10
25.980221
20
91.264554
30
0.0
10
26.350953
20
93.310781
30
0.0
10
26.867050
20
96.262360
30
0.0
10
26.085146
20
95.797932
30
0.0
10
24.408686
20
94.427840
30
0.0
10
20.607765
20
90.889659
30
0.0
10
19.480870
20
89.541520
30
0.0
10
19.264795
20
89.114846
30
0.0
10
19.306356
20
88.893075
30
0.0
10
19.655336
20
88.217086
30
0.0
10
19.954307
20
86.925611
30
0.0
10
20.237977
20
85.720152
30
0.0
10
20.550160
20
85.250969
30
0.0
10
22.875846
20
85.551795
30
0.0
10
24.156980
20
85.676874
30
0.0
10
24.556608
20
85.628821
30
0.0
10
24.840145
20
85.462517
30
0.0
10
25.192559
20
84.641580
30
0.0
10
25.481441
20
82.946920
30
0.0
10
25.722052
20
81.403563
30
0.0
10
27.623880
20
81.627085
30
0.0
10
29.190094
20
81.705591
30
0.0
10
29.459283
20
81.555775
30
0.0
10
29.525705
20
81.252359
30
0.0
10
29.576012
20
81.009591
30
0.0
10
29.750355
20
80.992205
30
0.0
10
30.611685
20
81.690250
30
0.0
10
31.453950
20
82.609084
30
0.0
10
31.330475
20
82.759300
30
0.0
10
30.876268
20
82.844457
30
0.0
10
30.876268
20
82.844457
30
0.0
62
0
0
LWPOLYLINE
100
AcDbPolyline
8
Layer_1
90
14
70
0
10
33.405620
20
84.136727
30
0.0
10
35.954318
20
86.074239
30
0.0
10
37.336018
20
87.130586
30
0.0
10
37.622352
20
87.472033
30
0.0
10
37.587456
20
87.639582
30
0.0
10
35.155238
20
88.177644
30
0.0
10
33.369764
20
88.348276
30
0.0
10
32.905020
20
86.875423
30
0.0
10
32.484221
20
84.578473
30
0.0
10
32.442402
20
83.944852
30
0.0
10
32.607294
20
83.647908
30
0.0
10
32.941000
20
83.705810
30
0.0
10
33.405620
20
84.136727
30
0.0
10
33.405620
20
84.136727
30
0.0
62
0
0
LWPOLYLINE
100
AcDbPolyline
8
Layer_1
90
23
70
0
10
84.539427
20
88.983414
30
0.0
10
88.929535
20
93.948967
30
0.0
10
87.714427
20
94.971569
30
0.0
10
84.145455
20
97.545983
30
0.0
10
82.386186
20
98.672338
30
0.0
10
81.574366
20
99.070231
30
0.0
10
80.893274
20
97.812660
30
0.0
10
80.585779
20
97.109664
30
0.0
10
80.572975
20
96.452065
30
0.0
10
80.930575
20
95.482575
30
0.0
10
81.734290
20
93.843910
30
0.0
10
82.659355
20
91.846388
30
0.0
10
82.887281
20
91.014003
30
0.0
10
77.295897
20
90.139069
30
0.0
10
76.584026
20
89.579851
30
0.0
10
75.895558
20
88.519948
30
0.0
10
75.486909
20
87.455794
30
0.0
10
75.467648
20
87.077260
30
0.0
10
75.614499
20
86.883828
30
0.0
10
77.876030
20
85.357471
30
0.0
10
79.948447
20
83.989483
30
0.0
10
84.539427
20
88.983414
30
0.0
10
84.539427
20
88.983414
30
0.0
62
0
0
LWPOLYLINE
100
AcDbPolyline
8
Layer_1
90
13
70
0
10
17.090290
20
84.536241
30
0.0
10
17.592523
20
84.843225
30
0.0
10
17.856125
20
85.371656
30
0.0
10
17.859691
20
86.026723
30
0.0
10
17.581819
20
86.713611
30
0.0
10
17.396339
20
86.863742
30
0.0
10
17.145954
20
86.795648
30
0.0
10
16.352499
20
85.943398
30
0.0
10
15.414595
20
84.513816
30
0.0
10
15.534759
20
84.371150
30
0.0
10
15.874673
20
84.327608
30
0.0
10
17.090290
20
84.536252
30
0.0
10
17.090290
20
84.536241
30
0.0
62
0
0
LWPOLYLINE
100
AcDbPolyline
8
Layer_1
90
29
70
0
10
41.510229
20
89.702810
30
0.0
10
39.834535
20
96.337914
30
0.0
10
38.400866
20
101.240821
30
0.0
10
37.973871
20
102.176004
30
0.0
10
37.639594
20
102.376874
30
0.0
10
33.720813
20
100.520927
30
0.0
10
29.639441
20
98.274401
30
0.0
10
28.880007
20
97.711072
30
0.0
10
28.766835
20
97.516825
30
0.0
10
28.868984
20
97.354649
30
0.0
10
29.832116
20
97.047892
30
0.0
10
31.995150
20
96.633561
30
0.0
10
34.530098
20
95.996092
30
0.0
10
34.559874
20
95.170648
30
0.0
10
34.291795
20
93.490689
30
0.0
10
34.022700
20
92.001391
30
0.0
10
34.104339
20
91.175930
30
0.0
10
34.669964
20
90.758418
30
0.0
10
35.852825
20
90.492970
30
0.0
10
37.835629
20
90.097185
30
0.0
10
39.015349
20
89.736546
30
0.0
10
39.542080
20
89.344884
30
0.0
10
39.565916
20
88.856030
30
0.0
10
39.460508
20
88.465543
30
0.0
10
39.520799
20
88.318934
30
0.0
10
40.429936
20
88.707124
30
0.0
10
41.196983
20
89.232163
30
0.0
10
41.510229
20
89.702810
30
0.0
10
41.510229
20
89.702810
30
0.0
62
0
0
LWPOLYLINE
100
AcDbPolyline
8
Layer_1
90
19
70
0
10
76.489585
20
94.368056
30
0.0
10
79.602728
20
100.213330
30
0.0
10
78.596607
20
100.862407
30
0.0
10
76.060515
20
101.965709
30
0.0
10
72.799520
20
103.198774
30
0.0
10
69.618691
20
104.237141
30
0.0
10
67.802094
20
104.763870
30
0.0
10
69.040841
20
103.622907
30
0.0
10
71.999749
20
100.983678
30
0.0
10
73.719902
20
99.485411
30
0.0
10
72.414703
20
94.986456
30
0.0
10
70.949267
20
89.926652
30
0.0
10
71.056014
20
89.460605
30
0.0
10
71.522859
20
89.022825
30
0.0
10
72.188349
20
88.719046
30
0.0
10
72.891035
20
88.655003
30
0.0
10
74.155524
20
90.361514
30
0.0
10
76.489585
20
94.368056
30
0.0
10
76.489585
20
94.368056
30
0.0
62
0
0
LWPOLYLINE
100
AcDbPolyline
8
Layer_1
90
13
70
0
10
46.459038
20
90.909313
30
0.0
10
50.508162
20
92.013987
30
0.0
10
51.050857
20
92.193172
30
0.0
10
51.120363
20
92.306532
30
0.0
10
51.027819
20
92.464223
30
0.0
10
48.624800
20
93.965565
30
0.0
10
45.607791
20
95.542103
30
0.0
10
44.353059
20
93.309723
30
0.0
10
42.616349
20
90.328087
30
0.0
10
42.230538
20
89.627692
30
0.0
10
42.755828
20
89.763538
30
0.0
10
46.459038
20
90.909313
30
0.0
10
46.459038
20
90.909313
30
0.0
62
0
0
LWPOLYLINE
100
AcDbPolyline
8
Layer_1
90
13
70
0
10
69.015494
20
91.634028
30
0.0
10
70.224173
20
95.872275
30
0.0
10
71.074198
20
98.787602
30
0.0
10
69.460254
20
100.208253
30
0.0
10
68.162674
20
101.196260
30
0.0
10
67.804550
20
101.304199
30
0.0
10
67.604214
20
101.173478
30
0.0
10
66.044184
20
96.154734
30
0.0
10
64.860974
20
91.566035
30
0.0
10
68.405858
20
90.338961
30
0.0
10
68.688471
20
90.707896
30
0.0
10
69.015494
20
91.634028
30
0.0
10
69.015494
20
91.634028
30
0.0
62
0
0
LWPOLYLINE
100
AcDbPolyline
8
Layer_1
90
16
70
0
10
31.426029
20
92.845368
30
0.0
10
31.487210
20
93.625191
30
0.0
10
31.287078
20
94.147862
30
0.0
10
30.801019
20
94.442705
30
0.0
10
30.004422
20
94.539043
30
0.0
10
29.583926
20
94.443289
30
0.0
10
29.241276
20
94.182876
30
0.0
10
28.833610
20
93.368274
30
0.0
10
28.869622
20
92.495647
30
0.0
10
29.081569
20
92.162701
30
0.0
10
29.437511
20
91.965402
30
0.0
10
30.326490
20
91.786651
30
0.0
10
30.889995
20
91.845300
30
0.0
10
31.224388
20
92.183991
30
0.0
10
31.426029
20
92.845368
30
0.0
10
31.426029
20
92.845368
30
0.0
62
0
0
LWPOLYLINE
100
AcDbPolyline
8
Layer_1
90
12
70
0
10
53.896226
20
92.427778
30
0.0
10
54.127722
20
94.353831
30
0.0
10
54.220150
20
99.177958
30
0.0
10
54.220150
20
105.928138
30
0.0
10
51.738109
20
105.750547
30
0.0
10
49.070384
20
105.387270
30
0.0
10
50.395948
20
99.501223
30
0.0
10
52.288832
20
92.479371
30
0.0
10
52.572888
20
92.202052
30
0.0
10
53.017256
20
92.214788
30
0.0
10
53.896226
20
92.427778
30
0.0
10
53.896226
20
92.427778
30
0.0
62
0
0
LWPOLYLINE
100
AcDbPolyline
8
Layer_1
90
30
70
0
10
64.230391
20
98.165884
30
0.0
10
66.103613
20
104.662021
30
0.0
10
66.056099
20
104.854513
30
0.0
10
65.774876
20
105.029917
30
0.0
10
64.560035
20
105.309036
30
0.0
10
62.211018
20
105.721424
30
0.0
10
61.737326
20
105.728867
30
0.0
10
61.767833
20
105.244474
30
0.0
10
61.754139
20
104.850545
30
0.0
10
61.386230
20
104.411320
30
0.0
10
59.156826
20
103.031782
30
0.0
10
56.811899
20
101.571445
30
0.0
10
56.426847
20
101.057791
30
0.0
10
56.336816
20
100.480467
30
0.0
10
56.494302
20
99.483334
30
0.0
10
58.813773
20
100.750435
30
0.0
10
61.077943
20
101.896963
30
0.0
10
61.613381
20
100.944765
30
0.0
10
61.854113
20
100.297195
30
0.0
10
61.626632
20
99.755290
30
0.0
10
60.718395
20
99.093847
30
0.0
10
58.916855
20
98.087663
30
0.0
10
56.513205
20
96.788306
30
0.0
10
56.408695
20
94.628036
30
0.0
10
56.304188
20
92.467769
30
0.0
10
57.996195
20
92.334972
30
0.0
10
61.099316
20
92.144055
30
0.0
10
62.510427
20
92.085934
30
0.0
10
64.230391
20
98.165884
30
0.0
10
64.230391
20
98.165884
30
0.0
62
0
0
LWPOLYLINE
100
AcDbPolyline
8
Layer_1
90
11
70
0
10
79.961709
20
92.692362
30
0.0
10
79.460542
20
93.603437
30
0.0
10
78.985745
20
94.061502
30
0.0
10
78.589821
20
93.538433
30
0.0
10
78.301500
20
92.940552
30
0.0
10
78.266465
20
92.605913
30
0.0
10
78.518398
20
92.459871
30
0.0
10
79.090983
20
92.427778
30
0.0
10
79.710560
20
92.505499
30
0.0
10
79.961709
20
92.692362
30
0.0
10
79.961709
20
92.692362
30
0.0
62
0
0
LWPOLYLINE
100
AcDbPolyline
8
Layer_1
90
10
70
0
10
43.140035
20
96.018178
30
0.0
10
43.539157
20
97.047503
30
0.0
10
43.412793
20
97.332124
30
0.0
10
43.060899
20
97.631527
30
0.0
10
41.800604
20
98.450101
30
0.0
10
41.167372
20
98.677829
30
0.0
10
41.738991
20
96.640962
30
0.0
10
42.406700
20
94.897223
30
0.0
10
43.140035
20
96.018178
30
0.0
10
43.140035
20
96.018178
30
0.0
62
0
0
LWPOLYLINE
100
AcDbPolyline
8
Layer_1
90
12
70
0
10
49.087955
20
97.454862
30
0.0
10
48.509911
20
99.472942
30
0.0
10
48.181229
20
100.344493
30
0.0
10
47.436267
20
99.167908
30
0.0
10
46.924737
20
98.157735
30
0.0
10
46.966949
20
97.895424
30
0.0
10
47.192534
20
97.703147
30
0.0
10
48.399316
20
96.872874
30
0.0
10
48.951119
20
96.469546
30
0.0
10
49.209496
20
96.398018
30
0.0
10
49.087955
20
97.454862
30
0.0
10
49.087955
20
97.454862
30
0.0
62
0
0
LWPOLYLINE
100
AcDbPolyline
8
Layer_1
90
12
70
0
10
46.604552
20
102.289119
30
0.0
10
48.222927
20
105.244652
30
0.0
10
47.464635
20
105.214558
30
0.0
10
45.618322
20
104.846312
30
0.0
10
41.233031
20
103.673388
30
0.0
10
39.722739
20
103.091630
30
0.0
10
39.219446
20
102.724780
30
0.0
10
42.009367
20
100.995819
30
0.0
10
44.752469
20
99.499186
30
0.0
10
45.392921
20
100.312189
30
0.0
10
46.604552
20
102.289119
30
0.0
10
46.604552
20
102.289119
30
0.0
62
0
0
LWPOLYLINE
100
AcDbPolyline
8
Layer_1
90
12
70
0
10
57.931078
20
104.825733
30
0.0
10
58.676277
20
105.384968
30
0.0
10
58.814930
20
105.809640
30
0.0
10
58.355627
20
106.081102
30
0.0
10
57.306955
20
106.180710
30
0.0
10
56.799331
20
106.147635
30
0.0
10
56.505406
20
106.001252
30
0.0
10
56.369720
20
105.681365
30
0.0
10
56.336816
20
105.127778
30
0.0
10
56.493040
20
104.069445
30
0.0
10
57.931078
20
104.825733
30
0.0
10
57.931078
20
104.825733
30
0.0
  0
ENDSEC
  0
SECTION
  2
OBJECTS
  0
DICTIONARY
  5
C
330
0
100
AcDbDictionary
  3
ACAD_GROUP
350
D
  3
ACAD_MLINESTYLE
350
17
  0
DICTIONARY
  5
D
330
C
100
AcDbDictionary
  0
DICTIONARY
  5
1A
330
C
100
AcDbDictionary
  0
DICTIONARY
  5
17
330
C
100
AcDbDictionary
  3
STANDARD
350
18
  0
DICTIONARY
  5
19
330
C
100
AcDbDictionary
  0
ENDSEC
  0
EOF
